<svg width="36" height="36" viewBox="0 0 36 36" fill="none" xmlns="http://www.w3.org/2000/svg">
<g opacity="0.4">
<path d="M22.6599 28.2394C22.1367 28.2394 21.6827 27.8505 21.6148 27.3179C21.5415 26.7401 21.9502 26.2122 22.5278 26.1386C25.8605 25.7139 28.845 24.8109 30.9313 23.5952C32.8393 22.4837 33.8899 21.1769 33.8899 19.9156C33.8899 18.5256 32.6605 17.3882 31.6289 16.6785C31.1491 16.3484 31.0277 15.6919 31.3578 15.2118C31.6879 14.732 32.3447 14.6106 32.8245 14.9407C34.9014 16.3695 35.9993 18.0897 35.9993 19.9159C35.9993 21.9885 34.6142 23.891 31.9934 25.4179C29.6343 26.7922 26.4535 27.7651 22.7945 28.2312C22.7492 28.2367 22.7041 28.2394 22.6599 28.2394Z" fill="#2B3758"/>
<path d="M17.7429 26.729L14.9304 23.9165C14.5184 23.5045 13.8507 23.5045 13.4388 23.9165C13.027 24.3282 13.027 24.9962 13.4388 25.4079L14.2605 26.2297C11.1096 25.9042 8.24716 25.1706 6.03067 24.1046C3.5387 22.9063 2.10938 21.3795 2.10938 19.9161C2.10938 18.6749 3.13275 17.3849 4.99081 16.2835C5.49207 15.9866 5.65741 15.3395 5.3605 14.8385C5.06332 14.3372 4.41623 14.1719 3.91525 14.4688C0.67923 16.387 0 18.4898 0 19.9161C0 22.2562 1.81714 24.4188 5.11661 26.0058C7.67752 27.2371 10.9902 28.0619 14.5992 28.3811L13.4388 29.5415C13.027 29.9532 13.027 30.6212 13.4388 31.0332C13.6447 31.2389 13.9147 31.3419 14.1847 31.3419C14.4544 31.3419 14.7244 31.2389 14.9304 31.0332L17.7429 28.2207C18.1546 27.8087 18.1546 27.1407 17.7429 26.729Z" fill="#2B3758"/>
<path d="M11.0456 17.8051V17.5514C11.0456 16.6562 10.4977 16.4827 9.76297 16.4827C9.30869 16.4827 9.16174 16.0819 9.16174 15.6812C9.16174 15.2802 9.30869 14.8795 9.76297 14.8795C10.2705 14.8795 10.805 14.8127 10.805 13.7306C10.805 12.9558 10.3642 12.7687 9.81625 12.7687C9.16174 12.7687 8.82776 12.9291 8.82776 13.4502C8.82776 13.9042 8.62726 14.2115 7.85245 14.2115C6.89059 14.2115 6.77057 14.011 6.77057 13.3697C6.77057 12.3279 7.51846 10.9785 9.81625 10.9785C11.5131 10.9785 12.7955 11.5929 12.7955 13.3966C12.7955 14.3716 12.4348 15.2802 11.7669 15.5876C12.5551 15.8814 13.1295 16.4692 13.1295 17.5514V17.8051C13.1295 19.9961 11.6199 20.8245 9.74951 20.8245C7.45172 20.8245 6.57007 19.4218 6.57007 18.2995C6.57007 17.6983 6.82385 17.5379 7.55856 17.5379C8.41357 17.5379 8.62726 17.7249 8.62726 18.2328C8.62726 18.8607 9.2153 19.0076 9.81625 19.0076C10.7248 19.0076 11.0456 18.6736 11.0456 17.8051Z" fill="#2B3758"/>
<path d="M21.2385 17.5514V17.6717C21.2385 19.9695 19.8089 20.8245 17.9654 20.8245C16.1219 20.8245 14.6788 19.9695 14.6788 17.6717V14.1313C14.6788 11.8335 16.1617 10.9785 18.0857 10.9785C20.3434 10.9785 21.2385 12.3812 21.2385 13.49C21.2385 14.1313 20.9312 14.3315 20.2632 14.3315C19.6889 14.3315 19.181 14.1846 19.181 13.5702C19.181 13.0626 18.6468 12.7954 18.019 12.7954C17.2307 12.7954 16.7629 13.2096 16.7629 14.1313V15.3335C17.1906 14.866 17.7918 14.7457 18.4331 14.7457C19.9558 14.7457 21.2385 15.4137 21.2385 17.5514ZM16.7629 17.8186C16.7629 18.7404 17.2172 19.1411 17.9654 19.1411C18.7136 19.1411 19.1544 18.7404 19.1544 17.8186V17.6983C19.1544 16.723 18.7136 16.3489 17.9519 16.3489C17.2307 16.3489 16.7629 16.6963 16.7629 17.578V17.8186Z" fill="#2B3758"/>
<path d="M22.8544 17.6717V14.1313C22.8544 11.8335 24.2837 10.9785 26.1275 10.9785C27.971 10.9785 29.4138 11.8335 29.4138 14.1313V17.6717C29.4138 19.9695 27.971 20.8245 26.1275 20.8245C24.2837 20.8245 22.8544 19.9695 22.8544 17.6717ZM27.3297 14.1313C27.3297 13.2096 26.8756 12.7954 26.1275 12.7954C25.3793 12.7954 24.9385 13.2096 24.9385 14.1313V17.6717C24.9385 18.5934 25.3793 19.0076 26.1275 19.0076C26.8756 19.0076 27.3297 18.5934 27.3297 17.6717V14.1313Z" fill="#2B3758"/>
<path d="M31.9454 10.9688C30.2005 10.9688 28.7814 9.54932 28.7814 7.80469C28.7814 6.06006 30.2005 4.64062 31.9454 4.64062C33.6901 4.64062 35.1095 6.06006 35.1095 7.80469C35.1095 9.54932 33.6901 10.9688 31.9454 10.9688ZM31.9454 6.75C31.3637 6.75 30.8907 7.22324 30.8907 7.80469C30.8907 8.38641 31.3637 8.85938 31.9454 8.85938C32.5269 8.85938 33.0001 8.38641 33.0001 7.80469C33.0001 7.22324 32.5269 6.75 31.9454 6.75Z" fill="#2B3758"/>
</g>
</svg>
