<svg width="32" height="32" viewBox="0 0 32 32" fill="none" xmlns="http://www.w3.org/2000/svg">
<g clip-path="url(#clip0)">
<path d="M30.7301 3.22949H1.26991C0.568535 3.22949 0 3.79803 0 4.49941V18.6819V19.9337V27.5015C0 28.2028 0.568535 28.7714 1.26991 28.7714H30.7302C31.4315 28.7714 32.0001 28.2029 32.0001 27.5015V19.9337V18.6819V4.49941C32 3.79803 31.4314 3.22949 30.7301 3.22949ZM6.2358 20.5015H3.72089V22.1965H5.97419V22.7271H3.72089V24.794H3.1701V19.971H6.23591V20.5015H6.2358ZM10.9903 22.8096C10.9903 24.0636 10.2324 24.8218 8.97143 24.8218C7.70361 24.8218 6.93895 24.0636 6.93895 22.8096V19.971H7.49017V22.8096C7.49017 23.7467 8.05485 24.2912 8.97143 24.2912C9.88789 24.2912 10.4391 23.7467 10.4391 22.8096V19.971H10.9903V22.8096ZM15.0077 24.794H12.3411V19.971H12.8923V24.2708H15.0077V24.794ZM18.5701 24.794H15.9035V19.971H16.4545V24.2708H18.57V24.794H18.5701ZM23.6689 24.794H22.4423V22.9201H20.4445V24.794H19.2178V19.971H20.4445V21.9554H22.4423V19.971H23.6689V24.794ZM26.6597 24.794H24.6339V22.0157H25.8603V23.816H26.7355C27.4865 23.816 28.024 23.2368 28.024 22.3896C28.024 21.5347 27.4589 20.9494 26.6803 20.9494H24.6339V19.971H26.7079C28.2238 19.971 29.2709 20.9494 29.2709 22.3824C29.2709 23.8086 28.2098 24.794 26.6597 24.794ZM29.4603 17.412H2.53972V5.76921H29.4603V17.412Z" fill="#A4ABBA"/>
<path d="M11.7682 15.8016H13.8772V13.833H15.0914V12.1077H13.8772V10.1904H11.7682V12.1077H9.87664L12.5351 6.85449H10.3495L7.52478 12.3123V13.833H11.7682V15.8016Z" fill="#A4ABBA"/>
<path d="M18.4407 13.6032L19.6293 12.2866L21.9939 15.8016H24.7162L21.1758 10.5611L24.4991 6.85449H21.8661L18.4407 10.7273V6.85449H16.1655V15.8016H18.4407V13.6032Z" fill="#A4ABBA"/>
</g>
<defs>
<clipPath id="clip0">
<rect width="32" height="32" fill="white"/>
</clipPath>
</defs>
</svg>
