<svg width="32" height="32" viewBox="0 0 32 32" fill="none" xmlns="http://www.w3.org/2000/svg">
<circle opacity="0.1" cx="16" cy="16" r="16" fill="#067E7E"/>
<path fill-rule="evenodd" clip-rule="evenodd" d="M21.7063 12.2937C21.7994 12.3865 21.8733 12.4968 21.9237 12.6182C21.9741 12.7397 22 12.8699 22 13.0013C22 13.1328 21.9741 13.263 21.9237 13.3844C21.8733 13.5059 21.7994 13.6162 21.7063 13.709L15.708 19.7063C15.6151 19.7994 15.5048 19.8733 15.3833 19.9237C15.2619 19.9741 15.1317 20 15.0002 20C14.8687 20 14.7384 19.9741 14.617 19.9237C14.4955 19.8733 14.3852 19.7994 14.2924 19.7063L11.2932 16.7077C11.2002 16.6147 11.1265 16.5044 11.0762 16.383C11.0259 16.2616 11 16.1314 11 16C11 15.8686 11.0259 15.7384 11.0762 15.617C11.1265 15.4956 11.2002 15.3853 11.2932 15.2923C11.3861 15.1994 11.4965 15.1257 11.6179 15.0754C11.7394 15.0251 11.8695 14.9992 12.001 14.9992C12.1324 14.9992 12.2626 15.0251 12.384 15.0754C12.5055 15.1257 12.6158 15.1994 12.7088 15.2923L15.0002 17.5853L20.2907 12.2937C20.3836 12.2006 20.4939 12.1267 20.6153 12.0763C20.7368 12.0259 20.867 12 20.9985 12C21.13 12 21.2602 12.0259 21.3817 12.0763C21.5031 12.1267 21.6134 12.2006 21.7063 12.2937Z" fill="#0A7B77"/>
</svg>
