<svg width="32" height="32" viewBox="0 0 32 32" fill="none" xmlns="http://www.w3.org/2000/svg">
<g clip-path="url(#clip0)">
<path d="M26.6617 11.763C25.1827 5.87131 19.2077 2.29407 13.3159 3.77304C8.71168 4.92885 5.36849 8.90823 5.02402 13.6428C1.75482 14.1819 -0.458376 17.2691 0.0807523 20.5383C0.560012 23.4447 3.07836 25.5732 6.02391 25.5615H11.0234V23.5617H6.02391C3.81503 23.5617 2.02435 21.771 2.02435 19.5621C2.02435 17.3532 3.81503 15.5626 6.02391 15.5626C6.57617 15.5626 7.0238 15.1149 7.0238 14.5627C7.01881 9.59265 11.0438 5.55959 16.0138 5.55466C20.3161 5.55034 24.0196 8.59189 24.8519 12.8129C24.934 13.2343 25.2761 13.5563 25.7018 13.6128C28.4353 14.002 30.3357 16.5336 29.9465 19.2671C29.597 21.7217 27.5012 23.5493 25.0218 23.5617H21.0223V25.5615H25.0218C28.8874 25.5498 32.0116 22.4066 31.9998 18.541C31.9901 15.3233 29.7876 12.5266 26.6617 11.763Z" fill="#A4ABBA"/>
<path d="M15.3129 15.8533L11.3134 19.8528L12.7232 21.2627L15.0229 18.9729V28.5619H17.0227V18.9729L19.3125 21.2627L20.7223 19.8528L16.7228 15.8533C16.3327 15.4656 15.7029 15.4656 15.3129 15.8533Z" fill="#A4ABBA"/>
</g>
<defs>
<clipPath id="clip0">
<rect width="32" height="32" fill="white"/>
</clipPath>
</defs>
</svg>
