<svg width="699" height="367" viewBox="0 0 699 367" fill="none" xmlns="http://www.w3.org/2000/svg">
<path d="M403 324.975L408.5 291.975L477.5 292.975L484 322.475H498C500 322.475 502 322.975 504 323.975C506 324.975 506.5 332.475 507 335.975C507.4 338.775 504.833 339.808 503.5 339.975H413.5H381C378.6 339.975 378 337.975 378 336.975C378 335.641 378.2 332.275 379 329.475C379.8 326.675 381.333 325.975 382 325.975L403 324.975Z" fill="#003F5A"/>
<rect x="226.5" y="32.3789" width="425.973" height="260" rx="11.5" fill="#F8FBFF" stroke="#003F5A" stroke-width="7"/>
<rect x="593" y="41.9961" width="45" height="16" rx="4" fill="#B1D6D9"/>
<path d="M609 49.9961L631 49.9961" stroke="#0A7F7F" stroke-miterlimit="10" stroke-linecap="round" stroke-linejoin="round"/>
<path d="M534 62.9961H279C276.239 62.9961 274 65.2347 274 67.9961V266.996C274 269.758 276.239 271.996 279 271.996H534C536.761 271.996 539 269.758 539 266.996V67.9961C539 65.2347 536.761 62.9961 534 62.9961Z" fill="#E4EBF7"/>
<path d="M634 62.9961H551C548.239 62.9961 546 65.2347 546 67.9961V266.996C546 269.758 548.239 271.996 551 271.996H634C636.761 271.996 639 269.758 639 266.996V67.9961C639 65.2347 636.761 62.9961 634 62.9961Z" fill="#E4EBF7"/>
<path d="M262 62.9961H242C239.239 62.9961 237 65.2347 237 67.9961V266.996C237 269.758 239.239 271.996 242 271.996H262C264.761 271.996 267 269.758 267 266.996V67.9961C267 65.2347 264.761 62.9961 262 62.9961Z" fill="#E4EBF7"/>
<rect x="261" y="74.9961" width="18" height="18" rx="9" transform="rotate(90 261 74.9961)" fill="#C2D1DE"/>
<path opacity="0.43" d="M263 100.996H241V101.996H263V100.996Z" fill="#C2D1DE"/>
<path opacity="0.43" d="M263 218.996H241V219.996H263V218.996Z" fill="#C2D1DE"/>
<path opacity="0.6" d="M626 102.996H559C556.239 102.996 554 105.235 554 107.996V120.496C554 123.258 556.239 125.496 559 125.496H626C628.761 125.496 631 123.258 631 120.496V107.996C631 105.235 628.761 102.996 626 102.996Z" fill="white"/>
<path d="M572 113.996L625 113.996" stroke="#DBE4ED" stroke-width="2" stroke-miterlimit="10" stroke-linecap="round" stroke-linejoin="round"/>
<rect x="567.5" y="110.496" width="7" height="7" rx="3.5" transform="rotate(90 567.5 110.496)" stroke="#C2D1DE"/>
<path opacity="0.6" d="M626 75.9961H559C556.239 75.9961 554 78.2347 554 80.9961V93.4961C554 96.2575 556.239 98.4961 559 98.4961H626C628.761 98.4961 631 96.2575 631 93.4961V80.9961C631 78.2347 628.761 75.9961 626 75.9961Z" fill="white"/>
<path d="M572 86.9961L625 86.9961" stroke="#DBE4ED" stroke-width="2" stroke-miterlimit="10" stroke-linecap="round" stroke-linejoin="round"/>
<rect x="567.5" y="83.4961" width="7" height="7" rx="3.5" transform="rotate(90 567.5 83.4961)" stroke="#C2D1DE"/>
<rect x="257.5" y="110.496" width="11" height="11" rx="5.5" transform="rotate(90 257.5 110.496)" fill="#C2D1DE" stroke="#C2D1DE"/>
<rect x="257.5" y="150.496" width="11" height="11" rx="5.5" transform="rotate(90 257.5 150.496)" fill="#C2D1DE" stroke="#C2D1DE"/>
<rect opacity="0.5" x="258" y="227.996" width="12" height="12" rx="6" transform="rotate(90 258 227.996)" fill="#C2D1DE"/>
<rect x="257.5" y="130.496" width="11" height="11" rx="5.5" transform="rotate(90 257.5 130.496)" fill="#C2D1DE" stroke="#C2D1DE"/>
<rect x="257.5" y="170.496" width="11" height="11" rx="5.5" transform="rotate(90 257.5 170.496)" fill="#C2D1DE" stroke="#C2D1DE"/>
<rect opacity="0.5" x="258" y="247.996" width="12" height="12" rx="6" transform="rotate(90 258 247.996)" fill="#C2D1DE"/>
<path opacity="0.6" d="M626 182.996H559C556.239 182.996 554 185.235 554 187.996V200.496C554 203.258 556.239 205.496 559 205.496H626C628.761 205.496 631 203.258 631 200.496V187.996C631 185.235 628.761 182.996 626 182.996Z" fill="white"/>
<path d="M572 193.996L625 193.996" stroke="#DBE4ED" stroke-width="2" stroke-miterlimit="10" stroke-linecap="round" stroke-linejoin="round"/>
<rect x="567.5" y="190.496" width="7" height="7" rx="3.5" transform="rotate(90 567.5 190.496)" stroke="#C2D1DE"/>
<path opacity="0.6" d="M626 129.996H559C556.239 129.996 554 132.235 554 134.996V147.496C554 150.258 556.239 152.496 559 152.496H626C628.761 152.496 631 150.258 631 147.496V134.996C631 132.235 628.761 129.996 626 129.996Z" fill="white"/>
<path d="M572 140.996L625 140.996" stroke="#DBE4ED" stroke-width="2" stroke-miterlimit="10" stroke-linecap="round" stroke-linejoin="round"/>
<rect x="567.5" y="137.496" width="7" height="7" rx="3.5" transform="rotate(90 567.5 137.496)" stroke="#C2D1DE"/>
<path opacity="0.6" d="M626 209.996H559C556.239 209.996 554 212.235 554 214.996V227.496C554 230.258 556.239 232.496 559 232.496H626C628.761 232.496 631 230.258 631 227.496V214.996C631 212.235 628.761 209.996 626 209.996Z" fill="white"/>
<path d="M572 220.996L625 220.996" stroke="#DBE4ED" stroke-width="2" stroke-miterlimit="10" stroke-linecap="round" stroke-linejoin="round"/>
<rect x="567.5" y="217.496" width="7" height="7" rx="3.5" transform="rotate(90 567.5 217.496)" stroke="#C2D1DE"/>
<path opacity="0.6" d="M626 156.996H559C556.239 156.996 554 159.235 554 161.996V173.996C554 176.758 556.239 178.996 559 178.996H626C628.761 178.996 631 176.758 631 173.996V161.996C631 159.235 628.761 156.996 626 156.996Z" fill="white"/>
<path d="M572 167.996L625 167.996" stroke="#DBE4ED" stroke-width="2" stroke-miterlimit="10" stroke-linecap="round" stroke-linejoin="round"/>
<rect x="567.5" y="164.496" width="7" height="7" rx="3.5" transform="rotate(90 567.5 164.496)" stroke="#C2D1DE"/>
<path opacity="0.6" d="M626 236.996H559C556.239 236.996 554 239.235 554 241.996V253.996C554 256.758 556.239 258.996 559 258.996H626C628.761 258.996 631 256.758 631 253.996V241.996C631 239.235 628.761 236.996 626 236.996Z" fill="white"/>
<path d="M572 247.996L625 247.996" stroke="#DBE4ED" stroke-width="2" stroke-miterlimit="10" stroke-linecap="round" stroke-linejoin="round"/>
<rect x="567.5" y="244.496" width="7" height="7" rx="3.5" transform="rotate(90 567.5 244.496)" stroke="#C2D1DE"/>
<path opacity="0.3" d="M343 250.996L496 250.996" stroke="#FEA02F" stroke-width="4" stroke-miterlimit="10" stroke-linecap="round" stroke-linejoin="round"/>
<path d="M343 250.996L398 250.996" stroke="#FEA02F" stroke-width="4" stroke-miterlimit="10" stroke-linecap="round" stroke-linejoin="round"/>
<circle cx="395.5" cy="250.496" r="7.5" fill="#198787"/>
<path opacity="0.5" d="M392 207.996C425.137 207.996 452 205.758 452 202.996C452 200.235 425.137 197.996 392 197.996C358.863 197.996 332 200.235 332 202.996C332 205.758 358.863 207.996 392 207.996Z" fill="#C2D1DE"/>
<path d="M426.028 187.263C426.028 185.384 427.736 183.875 429.815 183.875C431.922 183.875 433.602 185.384 433.602 187.263C433.602 188.032 433.317 188.744 432.833 189.313C432.406 189.826 432.548 190.595 433.146 190.908C433.431 191.079 433.602 191.363 433.602 191.705V199.251C433.602 199.678 433.26 200.019 432.833 200.019H426.768C426.341 200.019 425.999 199.678 425.999 199.251V191.705C425.999 191.363 426.17 191.079 426.455 190.908C427.024 190.595 427.195 189.826 426.768 189.313C426.312 188.744 426.028 188.032 426.028 187.263Z" fill="#DAE3F1"/>
<path d="M426.028 187.263C426.028 185.384 427.736 183.875 429.815 183.875C431.922 183.875 433.602 185.384 433.602 187.263C433.602 188.032 433.317 188.744 432.833 189.313C432.406 189.826 432.548 190.595 433.146 190.908C433.431 191.079 433.602 191.363 433.602 191.705V199.251C433.602 199.678 433.26 200.019 432.833 200.019H426.768C426.341 200.019 425.999 199.678 425.999 199.251V191.705C425.999 191.363 426.17 191.079 426.455 190.908C427.024 190.595 427.195 189.826 426.768 189.313C426.312 188.744 426.028 188.032 426.028 187.263Z" fill="#F3FAFF"/>
<path d="M428.251 184.559H431.411C431.781 184.559 432.066 184.274 432.066 183.904C432.066 183.534 431.781 183.249 431.411 183.249H428.251C427.88 183.249 427.596 183.534 427.596 183.904C427.596 184.246 427.88 184.559 428.251 184.559Z" fill="#003F5A"/>
<path d="M429.218 183.904H430.471C430.698 183.904 430.869 183.733 430.869 183.505V182.395C430.869 182.167 430.698 181.996 430.471 181.996H429.218C428.99 181.996 428.819 182.167 428.819 182.395V183.505C428.791 183.704 428.99 183.904 429.218 183.904Z" fill="#003F5A"/>
<g clip-path="url(#clip0)">
<path d="M341.521 203.803C337.322 203.686 333.962 202.331 334 200.743C334.038 199.155 337.474 197.954 341.636 198.07C345.835 198.186 349.195 199.542 349.157 201.13C349.119 202.718 345.683 203.88 341.521 203.803Z" fill="#C2D1DE"/>
<path d="M349.158 201.13L349.196 199.232L334.039 198.845L334.001 200.743L343.125 202.408L349.158 201.13Z" fill="#C2D1DE"/>
<path d="M341.561 201.91C337.366 201.806 333.998 200.439 334.038 198.856C334.079 197.274 337.512 196.075 341.706 196.179C345.901 196.283 349.269 197.65 349.229 199.232C349.189 200.815 345.755 202.014 341.561 201.91Z" fill="#E4EBF6"/>
<path d="M341.598 199.813C339.498 199.774 337.818 199.077 337.818 198.264C337.857 197.489 339.575 196.869 341.674 196.908C343.774 196.947 345.454 197.644 345.454 198.457C345.416 199.271 343.698 199.852 341.598 199.813Z" fill="#C2D1DE"/>
<path d="M345.454 198.457V197.528L337.857 197.334V198.264L342.4 199.116L345.454 198.457Z" fill="#C2D1DE"/>
<path d="M341.639 198.845C339.531 198.792 337.838 198.107 337.858 197.315C337.877 196.524 339.602 195.926 341.71 195.98C343.818 196.034 345.51 196.719 345.491 197.51C345.471 198.301 343.747 198.899 341.639 198.845Z" fill="#E4EBF6"/>
<path d="M348.47 199.579C345.95 198.417 344.27 196.713 344.69 195.784C345.11 194.854 347.477 195.009 349.997 196.171C352.517 197.333 354.196 199.037 353.777 199.967C353.357 200.896 350.989 200.741 348.47 199.579Z" fill="#C2D1DE"/>
<path d="M353.777 199.967L354.311 198.844L345.225 194.622L344.69 195.784L349.806 199.154L353.777 199.967Z" fill="#C2D1DE"/>
<path d="M349.004 198.457C346.485 197.295 344.805 195.591 345.225 194.661C345.645 193.732 348.012 193.887 350.532 195.049C353.051 196.211 354.731 197.915 354.311 198.845C353.891 199.774 351.486 199.619 349.004 198.457Z" fill="#E4EBF6"/>
<path d="M349.539 197.179C348.279 196.598 347.439 195.746 347.63 195.281C347.859 194.817 349.042 194.894 350.302 195.475C351.562 196.056 352.402 196.908 352.211 197.373C352.02 197.876 350.799 197.76 349.539 197.179Z" fill="#C2D1DE"/>
<path d="M352.211 197.373L352.478 196.83L347.897 194.7L347.668 195.281L350.226 196.985L352.211 197.373Z" fill="#C2D1DE"/>
<path d="M349.807 196.636C348.547 196.055 347.707 195.203 347.898 194.738C348.127 194.274 349.311 194.351 350.57 194.932C351.83 195.513 352.67 196.365 352.479 196.83C352.25 197.295 351.067 197.217 349.807 196.636Z" fill="#E4EBF6"/>
<path d="M366.853 199.601C365.058 199.335 364.177 195.139 364.885 190.228C365.592 185.317 367.62 181.552 369.414 181.818C371.209 182.084 372.09 186.281 371.382 191.191C370.675 196.102 368.647 199.867 366.853 199.601Z" fill="#F3FAFF"/>
<path d="M366.834 199.62L369.01 199.968L371.568 182.151L369.43 181.803L366.223 192.338L366.834 199.62Z" fill="#F3FAFF"/>
<path d="M369.025 199.952C367.231 199.686 366.35 195.489 367.057 190.579C367.764 185.668 369.792 181.903 371.587 182.169C373.381 182.435 374.262 186.631 373.555 191.542C372.847 196.453 370.819 200.218 369.025 199.952Z" fill="#C2D1DE"/>
<path d="M370.422 190.207L386.343 192.57C386.801 192.647 387.106 193.073 387.03 193.538C386.953 194.003 386.533 194.313 386.075 194.235L370.193 191.873C369.735 191.795 369.43 191.369 369.506 190.904C369.544 190.478 369.964 190.13 370.422 190.207Z" fill="#C2D1DE"/>
<path d="M381.99 192.764C382.678 187.845 384.701 184.088 386.534 184.36C388.328 184.631 389.206 188.814 388.481 193.733C387.755 198.652 385.732 202.409 383.937 202.138C382.143 201.905 381.265 197.683 381.99 192.764Z" fill="#C2D1DE"/>
<path d="M383.938 202.176L386.114 202.486L388.672 184.669L386.534 184.359L383.289 194.856L383.938 202.176Z" fill="#C2D1DE"/>
<path d="M384.128 193.113C384.853 188.194 386.877 184.398 388.671 184.669C390.466 184.94 391.382 189.162 390.656 194.081C389.931 199 387.908 202.757 386.113 202.525C384.319 202.292 383.441 198.032 384.128 193.113Z" fill="#E4EBF6"/>
<path d="M386.534 193.461C386.877 190.982 387.908 189.084 388.824 189.239C389.74 189.394 390.16 191.486 389.817 193.965C389.473 196.444 388.442 198.341 387.526 198.187C386.61 198.032 386.152 195.901 386.534 193.461Z" fill="#C2D1DE"/>
<path d="M387.525 198.148L388.594 198.341L389.892 189.394L388.785 189.239L387.181 194.507L387.525 198.148Z" fill="#C2D1DE"/>
<path d="M387.602 193.616C387.946 191.138 388.977 189.24 389.893 189.395C390.809 189.511 391.229 191.641 390.886 194.12C390.542 196.599 389.511 198.497 388.595 198.342C387.679 198.187 387.259 196.095 387.602 193.616Z" fill="#E4EBF6"/>
</g>
<path opacity="0.15" d="M371.442 109.75H341.414C339.006 109.75 337 111.689 337 114.164V127.607C337 130.014 338.939 132.021 341.414 132.021H367.497L374.184 136.167L371.576 132.021C373.984 131.954 375.856 130.014 375.856 127.607V114.164C375.856 111.756 373.917 109.75 371.442 109.75Z" fill="#003F5A"/>
<path d="M348.302 120.986C348.302 119.916 347.433 118.979 346.296 118.979C345.159 118.979 344.29 119.849 344.29 120.986C344.29 122.056 345.159 122.992 346.296 122.992C347.433 122.992 348.302 122.056 348.302 120.986Z" fill="#E4EBF6"/>
<path d="M358.47 120.986C358.47 119.916 357.6 118.979 356.463 118.979C355.393 118.979 354.457 119.849 354.457 120.986C354.457 122.056 355.326 122.992 356.463 122.992C357.533 122.925 358.47 122.056 358.47 120.986Z" fill="#E4EBF6"/>
<path d="M368.566 120.987C368.566 119.917 367.697 118.98 366.56 118.98C365.423 118.98 364.554 119.85 364.554 120.987C364.554 122.057 365.423 122.993 366.56 122.993C367.697 122.993 368.566 122.057 368.566 120.987Z" fill="#E4EBF6"/>
<path d="M408.893 156.909C408.432 161.28 404.733 174.217 404.733 174.217C403.937 177.25 403.979 186.588 403.525 190.6C403.071 194.611 402.881 200.847 402.881 200.847L399.547 200.843L398.664 185.992C398.485 180.965 396.529 171.758 398.003 160.98C398.831 154.924 400.501 147.309 401.741 146.041C402.981 144.773 406.443 143.635 407.752 145.658C409.061 147.682 409.355 152.539 408.893 156.909Z" fill="#003F5A"/>
<mask id="mask0" mask-type="alpha" maskUnits="userSpaceOnUse" x="397" y="144" width="13" height="57">
<path d="M408.893 156.909C408.432 161.28 404.733 174.217 404.733 174.217C403.937 177.25 403.979 186.588 403.525 190.6C403.071 194.611 402.881 200.847 402.881 200.847L399.547 200.843L398.664 185.992C398.485 180.965 396.529 171.758 398.003 160.98C398.831 154.924 400.501 147.309 401.741 146.041C402.981 144.773 406.443 143.635 407.752 145.658C409.061 147.682 409.355 152.539 408.893 156.909Z" fill="#003F5A"/>
</mask>
<g mask="url(#mask0)">
<path d="M403.752 169.315C404.619 165.866 406.377 158.902 406.476 158.635L406.476 165.143L404.743 184L403.381 190.675L403.752 169.315Z" fill="#00293A"/>
</g>
<path d="M415.121 166.731C415.121 166.731 416.534 159.639 415.585 154.549C414.635 149.459 411.962 145.32 409.848 143.888C407.734 142.457 405.423 144.277 404.482 146.426C403.541 148.575 406.11 157.489 406.11 164.811C406.11 170.014 406.287 174.088 406.729 179.997C407.359 188.417 409.737 201.245 409.737 201.245C409.737 201.245 411.361 200.986 413.055 200.606C412.422 197.658 412.484 197.313 412.484 190.207C412.484 178.786 415.121 166.731 415.121 166.731Z" fill="#003F5A"/>
<path d="M408.838 205.01C404.126 205.709 403.71 204.484 403.936 204.213C404.091 204.026 407.354 202.934 409.677 201.298C410.058 201.03 409.916 198.783 409.916 198.783L412.53 199.391L413.029 200.58C413.408 204.546 413.55 204.311 408.838 205.01Z" fill="#003F5A"/>
<path d="M398.576 204.21C393.864 204.91 393.449 203.684 393.674 203.413C393.829 203.226 397.092 202.134 399.415 200.498C399.796 200.23 399.654 197.984 399.654 197.984L402.269 198.591L402.768 199.78C403.146 203.746 403.289 203.511 398.576 204.21Z" fill="#003F5A"/>
<path d="M386.108 122.893H395.955V140.414H386.108V122.893Z" fill="#332938"/>
<path d="M416.59 148.112L411.76 142.346L400.619 148.87L416.59 148.112Z" fill="url(#paint0_linear)"/>
<path d="M393.666 131.195L384.314 145.241L390.336 147.115L396.886 137.848L393.666 131.195Z" fill="#EE9326"/>
<path d="M391.69 145.199L388.794 144.356L390.055 143.197L391.69 145.199Z" fill="#DD8821"/>
<path d="M416.59 148.113L398.617 151.469L393.472 139.876L393.685 130.345L396.718 127.653L404.367 127.278L416.59 148.113Z" fill="url(#paint1_linear)"/>
<path d="M400.74 122.925C401.056 123.913 402.112 124.459 403.1 124.143C404.088 123.828 404.633 122.772 404.318 121.784C404.003 120.796 402.947 120.251 401.958 120.566C400.97 120.873 400.425 121.937 400.74 122.925Z" fill="#332938"/>
<path d="M386.312 124.56C387.104 127.047 389.855 128.393 392.462 127.559C395.068 126.732 396.533 124.041 395.75 121.553C394.958 119.066 392.206 117.72 389.6 118.555C386.993 119.381 385.52 122.073 386.312 124.56Z" fill="#332938"/>
<path d="M393.687 130.344L396.71 127.66L393.584 124.143L390.561 126.826L393.687 130.344Z" fill="#FFB38C"/>
<path d="M392.142 128.717C393.471 128.257 394.195 126.826 393.769 125.489L392.96 122.959C392.449 121.366 390.788 120.472 389.246 120.957C387.704 121.451 386.861 123.138 387.372 124.739L388.258 127.533C388.854 129.399 390.643 129.245 392.142 128.717Z" fill="#FFB38C"/>
<path d="M392.929 123.443L393.245 123.341L391.984 119.397L388.134 120.624L388.262 121.033C388.883 122.983 390.97 124.065 392.929 123.443Z" fill="#332938"/>
<path d="M393.525 125.565C392.786 125.565 392.188 124.967 392.188 124.228C392.188 123.489 392.786 122.891 393.525 122.891C394.264 122.891 394.862 123.489 394.862 124.228C394.862 124.967 394.264 125.565 393.525 125.565Z" fill="#FFB38C"/>
<path d="M390.93 126.517L389.166 127.155C389.166 127.155 390.504 128.118 390.93 126.517Z" fill="white"/>
<path d="M390.394 124.95C390.436 125.087 390.59 125.163 390.726 125.121C390.862 125.078 390.939 124.925 390.896 124.789C390.854 124.652 390.701 124.576 390.564 124.618C390.419 124.661 390.343 124.814 390.394 124.95Z" fill="#332938"/>
<path d="M388.179 125.65C388.221 125.786 388.374 125.863 388.511 125.82C388.647 125.777 388.724 125.624 388.681 125.488C388.639 125.352 388.485 125.275 388.349 125.317C388.213 125.369 388.136 125.513 388.179 125.65Z" fill="#332938"/>
<path d="M389.604 126.501C389.612 126.501 389.629 126.492 389.638 126.484L390.166 126.211L390.072 126.024L389.544 126.296L389.51 126.279L389.289 125.138L389.084 125.18L389.306 126.322C389.323 126.398 389.365 126.458 389.433 126.492C389.485 126.509 389.553 126.518 389.604 126.501Z" fill="#332938"/>
<path d="M397.065 147.739C397.065 147.739 383.999 140.038 383.675 147.245C383.343 154.604 396.111 150.43 396.111 150.43L397.065 147.739Z" fill="#FEA02F"/>
<path d="M398.573 147.014C398.573 147.014 402.627 147.201 402.27 147.806C401.903 148.419 398.283 148.274 398.283 148.274L398.573 147.014Z" fill="#FFB38C"/>
<path d="M397.275 149.994C397.275 149.994 401.492 149.432 401.193 150.071C400.895 150.71 397.284 150.88 397.284 150.88L397.275 149.994Z" fill="#FFB38C"/>
<path d="M397.416 150.837C396.36 151.17 395.5 150.735 395.517 149.568C395.534 148.401 396.394 147.183 397.45 146.859C398.507 146.527 399.341 147.209 399.333 148.384C399.307 149.543 398.464 150.505 397.416 150.837Z" fill="#FFB38C"/>
<path d="M398.375 148.249C398.375 148.249 402.523 148.419 402.191 149.109C401.859 149.791 398.154 149.663 398.154 149.663L398.375 148.249Z" fill="#FFB38C"/>
<path d="M396.742 147.234C396.742 147.234 397.338 146.834 398.36 146.459C399.382 146.085 400.788 145.991 400.873 146.28C400.958 146.57 397.5 148.205 397.5 148.205L396.742 147.234Z" fill="#FFB38C"/>
<path d="M385.586 106.111L387.332 103.564C387.332 103.564 385.467 101.648 382.766 100.557C380.066 99.4672 378.482 100.098 380.986 101.316C383.49 102.534 383.269 103.598 382.664 103.411C382.059 103.224 381.122 102.534 381.14 103.368C381.14 103.564 382.826 105.387 385.586 106.111Z" fill="#FFB38C"/>
<path d="M384.747 105.389C384.747 105.389 397.984 119.248 402.107 116.351C407.405 112.621 387.141 103.464 387.141 103.464L384.747 105.389Z" fill="#FFB358"/>
<path d="M398.482 116.224L401.097 128.6L406.506 134.375C406.506 134.375 409.351 123.396 402.392 113.37L398.482 116.224Z" fill="#FFB358"/>
<path d="M393.687 130.345C393.687 130.345 394.13 135.328 395.484 135.004C396.839 134.672 397.997 127.594 397.997 127.594L396.711 127.662C396.711 127.662 393.517 129.016 393.687 130.345Z" fill="#FFB38C"/>
<path d="M264.5 52.9746C262.567 52.9746 261 51.4076 261 49.4746C261 47.5416 262.567 45.9746 264.5 45.9746C266.433 45.9746 268 47.5416 268 49.4746C268 51.4076 266.433 52.9746 264.5 52.9746Z" fill="#003F5A"/>
<path d="M279.5 52.9746C277.567 52.9746 276 51.4076 276 49.4746C276 47.5416 277.567 45.9746 279.5 45.9746C281.433 45.9746 283 47.5416 283 49.4746C283 51.4076 281.433 52.9746 279.5 52.9746Z" fill="#003F5A"/>
<path d="M249.5 52.9746C247.567 52.9746 246 51.4076 246 49.4746C246 47.5416 247.567 45.9746 249.5 45.9746C251.433 45.9746 253 47.5416 253 49.4746C253 51.4076 251.433 52.9746 249.5 52.9746Z" fill="#01405B"/>
<g filter="url(#filter0_b)">
<path d="M429.778 53.9962C428.951 50.9095 430.799 47.7324 433.906 46.8999L521.098 23.5369C524.205 22.7044 527.394 24.5318 528.221 27.6186L534.586 51.3719C535.413 54.4586 533.565 57.6357 530.458 58.4682L443.266 81.8312C440.159 82.6637 436.97 80.8363 436.143 77.7495L429.778 53.9962Z" fill="#FEA02F" fill-opacity="0.9"/>
</g>
<path fill-rule="evenodd" clip-rule="evenodd" d="M519.769 6.98876C519.498 7.13252 519.396 7.46828 519.54 7.7387L521.818 12.0251C521.962 12.2955 522.298 12.3982 522.568 12.2544C522.839 12.1107 522.941 11.7749 522.797 11.5045L520.519 7.21812C520.375 6.9477 520.039 6.84501 519.769 6.98876Z" fill="#003F5A"/>
<path fill-rule="evenodd" clip-rule="evenodd" d="M514.649 17.1167C514.639 17.4228 514.878 17.6796 515.184 17.6903L520.036 17.8602C520.342 17.8709 520.598 17.6315 520.609 17.3254C520.62 17.0193 520.38 16.7625 520.074 16.7518L515.223 16.5819C514.917 16.5712 514.66 16.8107 514.649 17.1167Z" fill="#003F5A"/>
<path fill-rule="evenodd" clip-rule="evenodd" d="M528.913 6.42217C529.212 6.49103 529.398 6.78877 529.329 7.08719L528.237 11.8173C528.168 12.1157 527.871 12.3018 527.572 12.2329C527.274 12.164 527.088 11.8663 527.157 11.5679L528.248 6.83781C528.317 6.53939 528.615 6.3533 528.913 6.42217Z" fill="#003F5A"/>
<path d="M460.059 59.0372C461.528 64.5179 458.275 70.1514 452.794 71.6199C447.314 73.0885 441.68 69.836 440.212 64.3553C438.743 58.8746 441.996 53.2411 447.476 51.7726C452.957 50.3041 458.591 53.5565 460.059 59.0372Z" fill="white"/>
<path fill-rule="evenodd" clip-rule="evenodd" d="M452.415 70.2023C457.112 68.9435 459.9 64.1148 458.641 59.4171C457.383 54.7194 452.554 51.9315 447.856 53.1903C443.159 54.449 440.371 59.2777 441.629 63.9754C442.888 68.6732 447.717 71.461 452.415 70.2023ZM452.794 71.6199C458.275 70.1514 461.528 64.5179 460.059 59.0372C458.591 53.5565 452.957 50.3041 447.476 51.7726C441.996 53.2411 438.743 58.8746 440.212 64.3553C441.68 69.836 447.314 73.0885 452.794 71.6199Z" fill="white"/>
<path d="M465.61 51.168L466.868 50.8307L469.728 61.5019L476.395 59.7154L476.683 60.7893L468.757 62.913L465.61 51.168Z" fill="white"/>
<path d="M483.765 58.9816C482.903 59.2125 482.075 59.2304 481.282 59.0355C480.485 58.8293 479.797 58.4382 479.217 57.8622C478.638 57.2862 478.232 56.5676 478.002 55.7063C477.771 54.845 477.762 54.02 477.977 53.2313C478.191 52.4427 478.592 51.7655 479.182 51.1999C479.772 50.6342 480.498 50.2359 481.36 50.005C482.221 49.7741 483.049 49.7561 483.843 49.9511C484.636 50.1461 485.317 50.5331 485.885 51.1121C486.465 51.6881 486.87 52.4068 487.101 53.2681C487.332 54.1294 487.34 54.9544 487.126 55.743C486.924 56.5287 486.529 57.2099 485.942 57.7867C485.352 58.3524 484.627 58.7507 483.765 58.9816ZM483.482 57.9245C484.117 57.7544 484.646 57.4626 485.07 57.0493C485.502 56.6218 485.79 56.1071 485.932 55.5055C486.075 54.9038 486.056 54.2674 485.877 53.5962C485.697 52.9251 485.395 52.3646 484.97 51.9148C484.546 51.4651 484.041 51.1687 483.456 51.0258C482.879 50.8686 482.273 50.8751 481.638 51.0453C481.003 51.2154 480.47 51.5143 480.037 51.9418C479.613 52.3552 479.324 52.8642 479.17 53.4689C479.028 54.0706 479.046 54.707 479.226 55.3782C479.406 56.0493 479.708 56.6098 480.133 57.0595C480.568 57.5063 481.074 57.8082 481.651 57.9654C482.236 58.1083 482.847 58.0947 483.482 57.9245Z" fill="white"/>
<path d="M498.368 45.5195L500.445 53.2712C500.847 54.7701 500.769 55.9778 500.213 56.8942C499.671 57.8187 498.651 58.4815 497.154 58.8826C496.327 59.1044 495.506 59.1925 494.691 59.1469C493.891 59.1095 493.202 58.9406 492.623 58.6401L492.993 57.57C493.525 57.8348 494.127 57.9915 494.796 58.04C495.476 58.0854 496.157 58.0169 496.837 57.8347C497.971 57.5308 498.734 57.0446 499.126 56.3761C499.521 55.7188 499.572 54.842 499.278 53.7458L498.977 52.6216C498.753 53.2812 498.373 53.8384 497.839 54.2933C497.316 54.7452 496.686 55.0698 495.949 55.2673C495.11 55.4922 494.296 55.5183 493.509 55.3457C492.729 55.1588 492.054 54.7942 491.484 54.2518C490.921 53.6951 490.529 53.0029 490.308 52.1751C490.086 51.3474 490.081 50.5575 490.292 49.8054C490.515 49.0503 490.919 48.4026 491.504 47.8624C492.088 47.3221 492.805 46.9381 493.656 46.7102C494.416 46.5067 495.142 46.4739 495.835 46.6118C496.528 46.7498 497.139 47.0538 497.666 47.524L497.212 45.8294L498.368 45.5195ZM495.785 54.1784C496.431 54.0052 496.979 53.7145 497.429 53.3063C497.875 52.8869 498.174 52.3931 498.326 51.825C498.489 51.2538 498.486 50.655 498.319 50.0286C498.151 49.4022 497.855 48.888 497.431 48.486C497.016 48.0698 496.511 47.7973 495.918 47.6687C495.333 47.5257 494.711 47.5424 494.054 47.7186C493.407 47.8918 492.859 48.1825 492.41 48.5907C491.971 48.9959 491.671 49.4841 491.508 50.0552C491.356 50.6233 491.364 51.2206 491.532 51.847C491.7 52.4734 491.992 52.9947 492.407 53.4109C492.834 53.8241 493.34 54.1022 493.925 54.2451C494.518 54.3738 495.138 54.3515 495.785 54.1784Z" fill="white"/>
<path d="M509.49 52.0885C508.628 52.3194 507.801 52.3374 507.007 52.1424C506.21 51.9362 505.522 51.5451 504.943 50.9692C504.363 50.3932 503.958 49.6745 503.727 48.8132C503.496 47.9519 503.488 47.1269 503.702 46.3383C503.916 45.5496 504.318 44.8724 504.908 44.3068C505.497 43.7411 506.223 43.3428 507.085 43.1119C507.947 42.881 508.774 42.8631 509.568 43.0581C510.361 43.253 511.042 43.64 511.611 44.2191C512.19 44.7951 512.596 45.5137 512.826 46.375C513.057 47.2363 513.066 48.0613 512.852 48.85C512.649 49.6356 512.254 50.3168 511.667 50.8937C511.078 51.4593 510.352 51.8576 509.49 52.0885ZM509.207 51.0314C509.842 50.8613 510.371 50.5696 510.795 50.1562C511.228 49.7287 511.515 49.2141 511.658 48.6124C511.8 48.0107 511.782 47.3743 511.602 46.7031C511.422 46.032 511.12 45.4715 510.696 45.0218C510.271 44.572 509.766 44.2756 509.181 44.1327C508.604 43.9756 507.999 43.9821 507.364 44.1522C506.729 44.3224 506.195 44.6212 505.763 45.0488C505.339 45.4621 505.05 45.9711 504.896 46.5758C504.753 47.1775 504.772 47.8139 504.952 48.4851C505.131 49.1562 505.433 49.7167 505.858 50.1665C506.293 50.6132 506.8 50.9151 507.377 51.0723C507.962 51.2152 508.572 51.2016 509.207 51.0314Z" fill="white"/>
<path d="M158.049 335.908C158.049 332.695 160.97 330.114 164.524 330.114C168.127 330.114 171 332.695 171 335.908C171 337.223 170.513 338.44 169.685 339.414C168.955 340.29 169.199 341.605 170.221 342.14C170.708 342.433 171 342.92 171 343.504V356.406C171 357.137 170.416 357.721 169.685 357.721H159.315C158.584 357.721 158 357.137 158 356.406V343.504C158 342.92 158.292 342.433 158.779 342.14C159.753 341.605 160.045 340.29 159.315 339.414C158.536 338.44 158.049 337.223 158.049 335.908Z" fill="#DAE3F1"/>
<path opacity="0.2" d="M158.049 335.908C158.049 332.695 160.97 330.114 164.524 330.114C168.127 330.114 171 332.695 171 335.908C171 337.223 170.513 338.44 169.685 339.414C168.955 340.29 169.199 341.605 170.221 342.14C170.708 342.433 171 342.92 171 343.504V356.406C171 357.137 170.416 357.721 169.685 357.721H159.315C158.584 357.721 158 357.137 158 356.406V343.504C158 342.92 158.292 342.433 158.779 342.14C159.753 341.605 160.045 340.29 159.315 339.414C158.536 338.44 158.049 337.223 158.049 335.908Z" fill="white"/>
<path d="M161.847 331.284H167.251C167.884 331.284 168.371 330.797 168.371 330.164C168.371 329.531 167.884 329.044 167.251 329.044H161.847C161.214 329.044 160.727 329.531 160.727 330.164C160.727 330.748 161.214 331.284 161.847 331.284Z" fill="#003F5A"/>
<path d="M163.502 330.164H165.645C166.034 330.164 166.326 329.871 166.326 329.482V327.583C166.326 327.193 166.034 326.901 165.645 326.901H163.502C163.113 326.901 162.821 327.193 162.821 327.583V329.482C162.772 329.823 163.113 330.164 163.502 330.164Z" fill="#003F5A"/>
<path d="M152 366.902C92.3532 366.902 44 364.664 44 361.902C44 359.141 92.3532 356.902 152 356.902C211.647 356.902 260 359.141 260 361.902C260 364.664 211.647 366.902 152 366.902Z" fill="#3A9899"/>
<g clip-path="url(#clip1)">
<path d="M12.7989 365.902C5.65224 365.707 -0.0651073 363.427 -0.000137329 360.756C0.0648308 358.085 5.91212 356.066 12.9938 356.261C20.1405 356.457 25.8579 358.736 25.7929 361.407C25.7279 364.078 19.8806 366.032 12.7989 365.902Z" fill="#C2D1DE"/>
<path d="M25.7934 361.407L25.8584 358.215L0.0653706 357.563L0.000396729 360.755L15.5282 363.556L25.7934 361.407Z" fill="#C2D1DE"/>
<path d="M12.8695 362.712C5.73114 362.534 -0.00108229 360.233 0.0662535 357.571C0.133589 354.91 5.97498 352.897 13.1134 353.074C20.2518 353.252 25.984 355.554 25.9167 358.215C25.8493 360.877 20.0079 362.89 12.8695 362.712Z" fill="#E4EBF6"/>
<path d="M12.9293 359.192C9.35592 359.127 6.49724 357.954 6.49724 356.587C6.56221 355.284 9.48586 354.241 13.0592 354.307C16.6325 354.372 19.4912 355.544 19.4912 356.912C19.4262 358.28 16.5026 359.257 12.9293 359.192Z" fill="#C2D1DE"/>
<path d="M19.4912 356.913V355.349L6.5622 355.023V356.587L14.2936 358.02L19.4912 356.913Z" fill="#C2D1DE"/>
<path d="M12.9981 357.564C9.41094 357.473 6.53003 356.321 6.56335 354.991C6.59668 353.66 9.53162 352.654 13.1187 352.745C16.7058 352.835 19.5868 353.987 19.5534 355.318C19.5201 356.648 16.5852 357.654 12.9981 357.564Z" fill="#E4EBF6"/>
<path d="M24.6239 358.801C20.3359 356.846 17.4772 353.98 18.1919 352.417C18.9065 350.854 22.9347 351.114 27.2227 353.068C31.5107 355.023 34.3694 357.889 33.6547 359.452C32.94 361.015 28.9119 360.755 24.6239 358.801Z" fill="#C2D1DE"/>
<path d="M33.6549 359.452L34.5645 357.563L19.1016 350.463L18.192 352.417L26.898 358.084L33.6549 359.452Z" fill="#C2D1DE"/>
<path d="M25.5336 356.912C21.2456 354.958 18.3869 352.092 19.1015 350.528C19.8162 348.965 23.8443 349.225 28.1324 351.18C32.4204 353.134 35.279 356 34.5644 357.563C33.8497 359.127 29.7566 358.866 25.5336 356.912Z" fill="#E4EBF6"/>
<path d="M26.4432 354.762C24.2992 353.785 22.8699 352.352 23.1948 351.57C23.5846 350.789 25.5986 350.919 27.7426 351.896C29.8866 352.873 31.316 354.306 30.9911 355.088C30.6663 355.935 28.5872 355.739 26.4432 354.762Z" fill="#C2D1DE"/>
<path d="M30.991 355.087L31.4458 354.176L23.6494 350.593L23.2596 351.57L27.6126 354.436L30.991 355.087Z" fill="#C2D1DE"/>
<path d="M26.8978 353.85C24.7538 352.873 23.3245 351.44 23.6493 350.658C24.0392 349.876 26.0532 350.007 28.1972 350.984C30.3412 351.961 31.7706 353.394 31.4457 354.176C31.0559 354.957 29.0418 354.827 26.8978 353.85Z" fill="#E4EBF6"/>
<path d="M55.9066 358.836C52.8531 358.389 51.3537 351.331 52.5574 343.072C53.7611 334.813 57.2123 328.481 60.2657 328.928C63.3191 329.376 64.8186 336.433 63.6149 344.692C62.4111 352.951 58.96 359.284 55.9066 358.836Z" fill="#E4EBF6"/>
<path d="M55.8744 358.866L59.5777 359.452L63.9307 329.488L60.2924 328.901L54.8349 346.62L55.8744 358.866Z" fill="#E4EBF6"/>
<path d="M59.6029 359.425C56.5494 358.978 55.0499 351.92 56.2537 343.661C57.4574 335.402 60.9085 329.07 63.962 329.517C67.0154 329.964 68.5149 337.022 67.3112 345.281C66.1074 353.54 62.6563 359.872 59.6029 359.425Z" fill="#C2D1DE"/>
<path d="M61.9814 343.037L89.0738 347.01C89.8535 347.141 90.3732 347.857 90.2433 348.639C90.1133 349.421 89.3987 349.942 88.619 349.811L61.5916 345.838C60.8119 345.708 60.2922 344.991 60.4221 344.209C60.4871 343.493 61.2018 342.907 61.9814 343.037Z" fill="#C2D1DE"/>
<path d="M81.6677 347.336C82.8371 339.063 86.2805 332.744 89.3991 333.2C92.4527 333.656 93.947 340.691 92.7125 348.964C91.4781 357.237 88.0347 363.556 84.9811 363.1C81.9275 362.709 80.4332 355.608 81.6677 347.336Z" fill="#C2D1DE"/>
<path d="M84.9808 363.165L88.6841 363.686L93.0371 333.721L89.3988 333.2L83.8764 350.853L84.9808 363.165Z" fill="#C2D1DE"/>
<path d="M85.3057 347.922C86.5401 339.649 89.9835 333.265 93.0371 333.721C96.0907 334.177 97.65 341.278 96.4155 349.55C95.1811 357.823 91.7377 364.142 88.6841 363.751C85.6305 363.36 84.1362 356.195 85.3057 347.922Z" fill="#E4EBF6"/>
<path d="M89.3987 348.508C89.9834 344.339 91.7376 341.147 93.2969 341.407C94.8562 341.668 95.5708 345.186 94.9861 349.355C94.4014 353.524 92.6472 356.716 91.0879 356.455C89.5286 356.194 88.749 352.612 89.3987 348.508Z" fill="#C2D1DE"/>
<path d="M91.0871 356.39L92.9063 356.715L95.1152 341.668L93.2311 341.407L90.5024 350.266L91.0871 356.39Z" fill="#C2D1DE"/>
<path d="M91.218 348.769C91.8028 344.6 93.5569 341.408 95.1162 341.668C96.6755 341.864 97.3902 345.446 96.8054 349.615C96.2207 353.784 94.4665 356.976 92.9073 356.716C91.348 356.455 90.6333 352.938 91.218 348.769Z" fill="#E4EBF6"/>
</g>
<rect width="1.49026" height="3.47726" rx="0.745128" transform="matrix(-1 0 0 1 202.407 198.515)" fill="#B3E3E3"/>
<path d="M111.511 261.051C112.469 270.116 120.141 296.952 120.141 296.952C121.792 303.242 121.704 322.612 122.646 330.934C123.587 339.255 123.983 352.188 123.983 352.188L130.898 352.182L132.73 321.377C133.101 310.949 137.159 291.851 134.101 269.495C132.382 256.934 128.918 241.138 126.346 238.507C123.774 235.877 116.595 233.517 113.879 237.714C111.164 241.91 110.553 251.986 111.511 261.051Z" fill="#003F5A"/>
<mask id="mask1" mask-type="alpha" maskUnits="userSpaceOnUse" x="111" y="235" width="25" height="118">
<path d="M111.511 261.051C112.469 270.116 120.141 296.952 120.141 296.952C121.792 303.242 121.704 322.612 122.646 330.934C123.587 339.255 123.983 352.188 123.983 352.188L130.898 352.182L132.73 321.377C133.101 310.949 137.159 291.851 134.101 269.495C132.382 256.934 128.918 241.138 126.346 238.507C123.774 235.877 116.595 233.517 113.879 237.714C111.164 241.91 110.553 251.986 111.511 261.051Z" fill="#003F5A"/>
</mask>
<g mask="url(#mask1)">
<path d="M122.18 286.786C120.382 279.632 116.735 265.186 116.53 264.633L116.53 278.132L120.125 317.247L122.95 331.093L122.18 286.786Z" fill="#00293A"/>
</g>
<path d="M98.6039 281.422C98.6039 281.422 95.673 266.712 97.6425 256.154C99.6119 245.595 105.157 237.01 109.542 234.041C113.927 231.072 118.721 234.848 120.672 239.305C122.623 243.762 117.295 262.253 117.295 277.44C117.295 288.232 116.928 296.682 116.011 308.94C114.705 326.406 109.772 353.014 109.772 353.014C109.772 353.014 106.404 352.475 102.89 351.688C104.202 345.573 104.075 344.857 104.075 330.117C104.075 306.428 98.6039 281.422 98.6039 281.422Z" fill="#003F5A"/>
<path d="M111.639 360.823C121.413 362.274 122.275 359.733 121.807 359.169C121.486 358.782 114.718 356.517 109.899 353.124C109.109 352.567 109.403 347.907 109.403 347.907L103.98 349.168L102.945 351.633C102.16 359.86 101.864 359.372 111.639 360.823Z" fill="#003F5A"/>
<path d="M132.926 359.165C142.701 360.616 143.563 358.074 143.095 357.511C142.773 357.124 136.005 354.859 131.187 351.466C130.397 350.909 130.691 346.249 130.691 346.249L125.268 347.51L124.232 349.975C123.448 358.202 123.152 357.714 132.926 359.165Z" fill="#003F5A"/>
<path d="M207.023 212.731H201.652V214.163H207.023V212.731Z" fill="#D9CEDA"/>
<path d="M207.023 218.101H201.652V219.532H207.023V218.101Z" fill="#D9CEDA"/>
<path d="M220.131 358.406H217.622L217.092 353.583L211.827 306.373L211.262 301.161L211.173 300.437H213.682L213.771 301.161L213.806 301.585V301.603L214.336 306.373L219.601 353.583L220.131 358.406Z" fill="#AAAAAA"/>
<path d="M214.336 306.373H211.827L211.262 301.161L211.173 300.437H213.682L213.771 301.161L213.806 301.603L214.336 306.373Z" fill="#00293A"/>
<path d="M211.897 221.053H209.458V300.013H211.897V221.053Z" fill="#D3D3D3"/>
<path d="M216.456 299.254C216.456 299.784 216.244 300.261 215.891 300.614C215.643 300.862 215.308 301.056 214.954 301.127C214.831 301.162 214.689 301.162 214.548 301.162H206.986C206.792 301.162 206.597 301.127 206.421 301.074C205.643 300.844 205.06 300.102 205.06 299.236C205.06 299.13 205.078 299.024 205.095 298.918C205.166 298.512 205.36 298.159 205.625 297.894C205.961 297.54 206.456 297.328 206.968 297.328H214.548C215.484 297.328 216.262 298 216.421 298.865C216.456 299.007 216.456 299.13 216.456 299.254Z" fill="#003F5A"/>
<path d="M207.852 298.704L207.657 299.269L207.057 301.16L206.933 301.513L205.343 306.372H202.657L205.095 298.934L205.166 298.704H207.852Z" fill="#003F5A"/>
<path d="M205.343 306.372L189.901 353.582L188.311 358.405H185.625L187.215 353.582L202.657 306.372H205.343Z" fill="#D3D3D3"/>
<path d="M213.684 298.704H216.369L218.878 306.372H216.193L213.684 298.704Z" fill="#003F5A"/>
<path d="M235.909 358.405H233.224L231.651 353.582L216.191 306.372H218.877L234.337 353.582L235.909 358.405Z" fill="#D3D3D3"/>
<path d="M214.002 295.507H207.412V297.344H214.002V295.507Z" fill="#332938"/>
<path d="M213.367 222.695H208.013V224.48H213.367V222.695Z" fill="#332938"/>
<path d="M213.295 221.211H208.383C207.624 221.211 207.023 220.593 207.023 219.851V211.953C207.023 211.193 207.641 210.593 208.383 210.593H213.295C214.055 210.593 214.656 211.211 214.656 211.953V219.851C214.656 220.611 214.055 221.211 213.295 221.211Z" fill="#332938"/>
<path d="M203.154 226H194.85C194.055 226 193.418 225.364 193.418 224.569V204.427C193.418 203.632 194.055 202.996 194.85 202.996H203.154C203.949 202.996 204.585 203.632 204.585 204.427V224.587C204.585 225.364 203.949 226 203.154 226Z" fill="#332938"/>
<path d="M193.381 219.328H192.922C192.674 219.328 192.462 219.116 192.462 218.869V210.565C192.462 210.317 192.674 210.105 192.922 210.105H193.381C193.629 210.105 193.841 210.317 193.841 210.565V218.869C193.841 219.134 193.629 219.328 193.381 219.328Z" fill="#D3D3D3"/>
<path d="M220.681 209.144H208.278C207.589 209.144 207.041 209.691 207.041 210.38V211.617H220.699C221.388 211.617 221.935 211.069 221.935 210.38C221.918 209.691 221.37 209.144 220.681 209.144Z" fill="#D3D3D3"/>
<path d="M189.902 353.581L188.312 358.405H185.626L187.217 353.581H189.902Z" fill="#003F5A"/>
<path d="M219.605 353.581L220.135 358.405H217.626L217.096 353.581H219.605Z" fill="#003F5A"/>
<path d="M235.909 358.405H233.223L231.651 353.581H234.336L235.909 358.405Z" fill="#003F5A"/>
<path d="M207.306 299.18C207.306 299.533 207.023 299.816 206.67 299.816C206.316 299.816 206.034 299.533 206.034 299.18C206.034 298.827 206.316 298.544 206.67 298.544C207.023 298.544 207.306 298.844 207.306 299.18Z" fill="#68AFAF"/>
<path d="M214.638 299.887C214.99 299.887 215.275 299.603 215.275 299.251C215.275 298.9 214.99 298.615 214.638 298.615C214.287 298.615 214.002 298.9 214.002 299.251C214.002 299.603 214.287 299.887 214.638 299.887Z" fill="#68AFAF"/>
<path d="M158.781 190.487H138.356V226.831H158.781V190.487Z" fill="#332938"/>
<path d="M95.5479 242.802L105.566 230.841L128.676 244.375L95.5479 242.802Z" fill="url(#paint2_linear)"/>
<path d="M143.095 207.714L162.495 236.849L150.003 240.736L136.417 221.513L143.095 207.714Z" fill="#EE9326"/>
<path d="M147.192 236.76L153.199 235.011L150.584 232.608L147.192 236.76Z" fill="#DD8821"/>
<path d="M95.5479 242.804L132.828 249.765L143.5 225.718L143.058 205.948L136.768 200.364L120.902 199.587L95.5479 242.804Z" fill="url(#paint3_linear)"/>
<path d="M128.427 190.557C127.773 192.607 125.582 193.737 123.533 193.084C121.483 192.43 120.352 190.239 121.006 188.189C121.66 186.14 123.851 185.009 125.9 185.663C127.95 186.299 129.081 188.507 128.427 190.557Z" fill="#332938"/>
<path d="M158.357 193.952C156.714 199.111 151.007 201.903 145.601 200.171C140.194 198.457 137.155 192.874 138.781 187.715C140.424 182.556 146.131 179.764 151.537 181.496C156.944 183.21 160 188.793 158.357 193.952Z" fill="#332938"/>
<path d="M143.059 205.948L136.787 200.383L143.271 193.086L149.543 198.651L143.059 205.948Z" fill="#FFB38C"/>
<path d="M146.258 202.574C143.502 201.62 142 198.652 142.883 195.878L144.562 190.63C145.622 187.326 149.067 185.471 152.265 186.478C155.463 187.503 157.212 191.001 156.152 194.323L154.315 200.118C153.078 203.987 149.368 203.669 146.258 202.574Z" fill="#FFB38C"/>
<path d="M144.634 191.636L143.98 191.424L146.595 183.243L154.581 185.787L154.316 186.635C153.026 190.682 148.697 192.925 144.634 191.636Z" fill="#332938"/>
<path d="M143.394 196.037C144.926 196.037 146.167 194.795 146.167 193.263C146.167 191.731 144.926 190.489 143.394 190.489C141.862 190.489 140.62 191.731 140.62 193.263C140.62 194.795 141.862 196.037 143.394 196.037Z" fill="#FFB38C"/>
<path d="M148.765 198.018L152.422 199.343C152.422 199.343 149.648 201.339 148.765 198.018Z" fill="white"/>
<path d="M149.876 194.765C149.788 195.048 149.47 195.207 149.187 195.119C148.905 195.03 148.746 194.712 148.834 194.43C148.922 194.147 149.24 193.988 149.523 194.076C149.823 194.165 149.982 194.483 149.876 194.765Z" fill="#332938"/>
<path d="M154.473 196.214C154.384 196.497 154.066 196.656 153.784 196.568C153.501 196.479 153.342 196.161 153.43 195.879C153.519 195.596 153.837 195.437 154.119 195.525C154.402 195.631 154.561 195.932 154.473 196.214Z" fill="#332938"/>
<path d="M151.504 197.982C151.487 197.982 151.451 197.965 151.434 197.947L150.338 197.381L150.533 196.993L151.628 197.558L151.699 197.523L152.158 195.155L152.582 195.244L152.123 197.611C152.088 197.77 151.999 197.894 151.858 197.965C151.752 198 151.61 198.018 151.504 197.982Z" fill="#332938"/>
<path d="M136.042 242.026C136.042 242.026 163.146 226.054 163.817 241.001C164.506 256.266 138.021 247.609 138.021 247.609L136.042 242.026Z" fill="#FEA02F"/>
<path d="M132.917 240.523C132.917 240.523 124.506 240.912 125.249 242.167C126.008 243.439 133.517 243.138 133.517 243.138L132.917 240.523Z" fill="#FFB38C"/>
<path d="M135.602 246.707C135.602 246.707 126.856 245.54 127.475 246.866C128.093 248.191 135.584 248.544 135.584 248.544L135.602 246.707Z" fill="#FFB38C"/>
<path d="M135.318 248.456C137.509 249.145 139.293 248.244 139.258 245.823C139.223 243.403 137.438 240.876 135.247 240.205C133.056 239.516 131.325 240.929 131.342 243.367C131.395 245.77 133.145 247.767 135.318 248.456Z" fill="#FFB38C"/>
<path d="M133.324 243.085C133.324 243.085 124.72 243.438 125.409 244.869C126.098 246.283 133.784 246.018 133.784 246.018L133.324 243.085Z" fill="#FFB38C"/>
<path d="M136.716 240.982C136.716 240.982 135.479 240.152 133.359 239.374C131.239 238.597 128.323 238.402 128.147 239.003C127.97 239.604 135.143 242.996 135.143 242.996L136.716 240.982Z" fill="#FFB38C"/>
<path d="M159.86 155.68L156.238 150.398C156.238 150.398 160.107 146.422 165.708 144.161C171.309 141.899 174.595 143.206 169.401 145.733C164.206 148.26 164.666 150.468 165.92 150.079C167.175 149.691 169.118 148.26 169.083 149.991C169.083 150.398 165.584 154.179 159.86 155.68Z" fill="#FFB38C"/>
<path d="M161.593 154.181C161.593 154.181 134.136 182.927 125.585 176.92C114.595 169.181 156.628 150.188 156.628 150.188L161.593 154.181Z" fill="#FFB358"/>
<path d="M133.107 176.654L127.683 202.326L116.463 214.306C116.463 214.306 110.562 191.531 124.997 170.735L133.107 176.654Z" fill="#FFB358"/>
<path d="M143.056 205.946C143.056 205.946 142.137 216.282 139.328 215.611C136.519 214.922 134.116 200.239 134.116 200.239L136.784 200.381C136.784 200.381 143.409 203.19 143.056 205.946Z" fill="#FFB38C"/>
<rect width="14.9026" height="3.97402" rx="1.98701" transform="matrix(-1 0 0 1 202.904 195.534)" fill="#332938"/>
<g clip-path="url(#clip2)">
<path d="M328.925 243.071C324.825 238.971 318.175 238.971 314.075 243.071C309.975 247.172 309.975 253.821 314.075 257.921C318.175 262.021 324.825 262.021 328.925 257.921C333.025 253.821 333.025 247.172 328.925 243.071ZM325.445 253.267H325.423C325.423 253.909 324.913 254.419 324.27 254.419H318.73C318.087 254.419 317.577 253.909 317.577 253.267V247.726C317.577 247.083 318.087 246.573 318.73 246.573H324.293C324.935 246.573 325.445 247.083 325.445 247.726V253.267Z" fill="#FEA02F"/>
<circle cx="321.5" cy="250.496" r="10.5" fill="#FEA02F"/>
<path d="M321.503 253.925C321.503 254.119 321.391 254.295 321.216 254.377C321.148 254.409 321.076 254.425 321.004 254.425C320.889 254.425 320.776 254.385 320.685 254.31L317.954 252.047H316.5C316.224 252.047 316 251.823 316 251.547V249.557C316 249.281 316.224 249.057 316.5 249.057H317.954L320.685 246.794C320.834 246.671 321.041 246.644 321.216 246.727C321.391 246.809 321.503 246.985 321.503 247.179L321.503 253.925ZM323.423 253.144C323.411 253.145 323.399 253.146 323.387 253.146C323.255 253.146 323.128 253.094 323.034 253L322.967 252.933C322.792 252.758 322.771 252.481 322.919 252.282C323.293 251.777 323.49 251.179 323.49 250.552C323.49 249.878 323.266 249.245 322.842 248.722C322.681 248.524 322.695 248.235 322.876 248.054L322.943 247.987C323.043 247.888 323.177 247.833 323.321 247.842C323.462 247.849 323.594 247.915 323.683 248.025C324.272 248.745 324.583 249.619 324.583 250.552C324.583 251.422 324.308 252.249 323.787 252.945C323.701 253.061 323.568 253.134 323.423 253.144ZM325.488 254.688C325.398 254.795 325.267 254.859 325.127 254.865C325.121 254.865 325.114 254.865 325.107 254.865C324.974 254.865 324.847 254.813 324.753 254.719L324.688 254.654C324.504 254.47 324.492 254.177 324.659 253.979C325.464 253.021 325.908 251.804 325.908 250.552C325.908 249.25 325.433 247.997 324.57 247.023C324.395 246.826 324.404 246.526 324.59 246.34L324.656 246.274C324.753 246.176 324.879 246.123 325.024 246.127C325.162 246.131 325.292 246.192 325.383 246.295C326.426 247.469 327 248.981 327 250.552C327 252.064 326.463 253.533 325.488 254.688Z" fill="white"/>
</g>
<g clip-path="url(#clip3)">
<path d="M525.16 25.8838L527.66 28.8838L525.16 26.3838H523.66L522.66 27.3838L521.66 28.8838L522.66 30.8838L525.66 33.8838L525.16 34.3838V37.3838L526.66 39.8838L527.66 40.8838L530.16 41.3838H536.66L540.16 40.8838L542.66 39.3838L545.16 36.3838L547.16 33.3838L547.66 30.3838L546.66 27.8838L545.16 25.3838L541.16 20.8838L537.66 17.8838L535.66 17.3838L534.66 18.3838L533.16 19.8838L530.66 18.8838L528.66 20.3838L528.16 22.3838L526.16 21.8838L524.16 22.8838V24.3838L525.16 25.8838Z" fill="white"/>
<path d="M545.477 24.4892L538.503 17.5155C537.262 16.2748 535.248 16.2748 534.007 17.5155C533.551 17.9712 533.251 18.5418 533.132 19.1601C531.884 18.0287 529.951 18.0652 528.749 19.2681C528.231 19.7868 527.929 20.4402 527.844 21.1159C526.657 20.5341 525.18 20.7346 524.193 21.7216C523.102 22.8138 522.972 24.5074 523.802 25.7426C523.157 25.8519 522.562 26.1576 522.09 26.6287C520.85 27.8681 520.85 29.8855 522.09 31.1249L524.326 33.3612V35.875C524.326 39.3534 527.157 42.1841 530.635 42.1841H537.544C539.604 42.1841 541.54 41.3821 542.998 39.9254L545.477 37.4467C547.207 35.7166 548.16 33.4159 548.16 30.968C548.16 28.5201 547.207 26.2192 545.477 24.4892ZM544.487 36.4554L542.008 38.9341C540.815 40.1258 539.229 40.782 537.546 40.782H530.635C527.929 40.782 525.728 38.5808 525.728 35.8749V34.7631L527.335 36.3712C527.608 36.6446 528.053 36.6446 528.326 36.3712C528.462 36.2338 528.531 36.0544 528.531 35.8749C528.531 35.6954 528.463 35.516 528.326 35.3786L523.081 30.1336C522.746 29.7985 522.561 29.3513 522.561 28.8774C522.561 28.4035 522.746 27.9563 523.081 27.6212C523.753 26.9496 524.923 26.9496 525.595 27.6212L527.335 29.3611C527.608 29.6345 528.053 29.6345 528.326 29.3611C528.462 29.2237 528.531 29.0443 528.531 28.8648C528.531 28.6853 528.463 28.5059 528.326 28.3685L525.184 25.2266C524.491 24.5339 524.491 23.4053 525.184 22.7127C525.877 22.0201 527.005 22.0201 527.698 22.7127L530.84 25.856C531.113 26.1294 531.558 26.1294 531.831 25.856C531.968 25.7186 532.036 25.5392 532.036 25.3597C532.036 25.1802 531.968 25.0008 531.831 24.8634L529.741 22.773C529.406 22.4379 529.22 21.9907 529.22 21.5167C529.22 21.0428 529.406 20.5956 529.742 20.2605C530.435 19.5679 531.563 19.5679 532.256 20.2605L534.346 22.3509C534.62 22.6243 535.064 22.6243 535.338 22.3509C535.473 22.2135 535.542 22.0341 535.542 21.8546C535.542 21.6751 535.475 21.4957 535.338 21.3583L535 21.0204C534.307 20.3278 534.307 19.1992 535 18.5066C535.671 17.835 536.842 17.835 537.513 18.5066L544.487 25.4802C545.952 26.9453 546.76 28.8955 546.76 30.9677C546.76 33.0399 545.952 34.9902 544.487 36.4554Z" fill="#003F5A"/>
</g>
<circle cx="295" cy="250.996" r="11" fill="#198787"/>
<circle cx="518" cy="250.996" r="10.5" stroke="#0A7F7F"/>
<g clip-path="url(#clip4)">
<path d="M522.763 246.031H520.518C520.387 246.031 520.281 246.137 520.281 246.268V246.898C520.281 247.029 520.387 247.135 520.518 247.135H521.116L519.315 248.935C519.271 248.98 519.246 249.04 519.246 249.103C519.246 249.165 519.271 249.226 519.315 249.27L519.761 249.716C519.807 249.762 519.867 249.785 519.928 249.785C519.988 249.785 520.049 249.762 520.095 249.716L521.896 247.915V248.513C521.896 248.644 522.002 248.749 522.133 248.749H522.763C522.894 248.749 522.999 248.644 522.999 248.513V246.268C522.999 246.137 522.894 246.031 522.763 246.031Z" fill="#0A7F7F"/>
<path d="M514.884 247.135H515.482C515.612 247.135 515.718 247.029 515.718 246.898V246.268C515.718 246.137 515.612 246.031 515.482 246.031H513.236C513.106 246.031 513 246.137 513 246.268V248.513C513 248.644 513.106 248.749 513.236 248.749H513.867C513.998 248.749 514.103 248.644 514.103 248.513V247.915L515.904 249.716C515.95 249.762 516.011 249.785 516.071 249.785C516.132 249.785 516.192 249.762 516.239 249.716L516.684 249.27C516.729 249.226 516.754 249.165 516.754 249.103C516.754 249.04 516.729 248.98 516.684 248.935L514.884 247.135Z" fill="#0A7F7F"/>
<path d="M516.239 252.277C516.146 252.185 515.997 252.185 515.904 252.277L514.103 254.078V253.48C514.103 253.349 513.998 253.244 513.867 253.244H513.236C513.106 253.244 513 253.349 513 253.48V255.725C513 255.856 513.106 255.962 513.236 255.962H515.482C515.612 255.962 515.718 255.856 515.718 255.725V255.095C515.718 254.964 515.612 254.858 515.482 254.858H514.884L516.684 253.057C516.729 253.013 516.754 252.953 516.754 252.89C516.754 252.828 516.729 252.767 516.684 252.723L516.239 252.277Z" fill="#0A7F7F"/>
<path d="M522.763 253.244H522.132C522.002 253.244 521.896 253.349 521.896 253.48V254.078L520.095 252.277C520.003 252.185 519.853 252.185 519.761 252.277L519.315 252.723C519.271 252.767 519.246 252.828 519.246 252.89C519.246 252.953 519.271 253.013 519.315 253.057L521.116 254.858H520.518C520.387 254.858 520.281 254.964 520.281 255.095V255.725C520.281 255.856 520.387 255.962 520.518 255.962H522.763C522.894 255.962 522.999 255.856 522.999 255.725V253.48C522.999 253.349 522.894 253.244 522.763 253.244Z" fill="#0A7F7F"/>
</g>
<g filter="url(#filter1_b)">
<rect x="689" y="105.996" width="210.197" height="65.0007" rx="7" transform="rotate(90 689 105.996)" fill="white" fill-opacity="0.9"/>
<rect x="688.5" y="106.496" width="209.197" height="64.0007" rx="6.5" transform="rotate(90 688.5 106.496)" stroke="#D5E0EB"/>
</g>
<rect x="674.65" y="200.541" width="36.2991" height="36.2991" rx="8" transform="rotate(90 674.65 200.541)" fill="#003F5A"/>
<rect x="674.65" y="160.023" width="36.2991" height="36.2991" rx="8" transform="rotate(90 674.65 160.023)" fill="#F0AE00"/>
<rect x="674.65" y="119.504" width="36.2991" height="36.2991" rx="8" transform="rotate(90 674.65 119.504)" fill="#0A7F7F"/>
<path d="M674.651 254.569L640.885 254.569" stroke="#003F5A" stroke-width="3" stroke-miterlimit="10" stroke-linecap="round" stroke-linejoin="round"/>
<path d="M656.999 254.995H640.999" stroke="#003F5A" stroke-width="3" stroke-miterlimit="10" stroke-linecap="round" stroke-linejoin="round"/>
<path d="M674.651 273.141L640.885 273.141" stroke="#003F5A" stroke-width="3" stroke-miterlimit="10" stroke-linecap="round" stroke-linejoin="round"/>
<path d="M674.651 291.714L640.885 291.714" stroke="#003F5A" stroke-width="3" stroke-miterlimit="10" stroke-linecap="round" stroke-linejoin="round"/>
<circle cx="658.999" cy="253.899" r="5" transform="rotate(90 658.999 253.899)" fill="#FEA02F"/>
<circle cx="667.999" cy="272.899" r="5" transform="rotate(90 667.999 272.899)" fill="#FEA02F"/>
<circle cx="648.999" cy="291.899" r="5" transform="rotate(90 648.999 291.899)" fill="#FEA02F"/>
<rect x="292" y="246.996" width="2" height="8" rx="1" fill="white"/>
<rect x="296" y="246.996" width="2" height="8" rx="1" fill="white"/>
<g filter="url(#filter2_b)">
<rect x="689" y="57.9961" width="105" height="51" rx="7" transform="rotate(-180 689 57.9961)" fill="white" fill-opacity="0.93"/>
<rect x="688.5" y="57.4961" width="104" height="50" rx="6.5" transform="rotate(-180 688.5 57.4961)" stroke="#D5E0EB"/>
</g>
<ellipse cx="663" cy="32.4961" rx="17.5" ry="18" transform="rotate(90 663 32.4961)" fill="#F0AE00"/>
<path d="M610 49.4961C600.322 49.4961 592.5 41.8718 592.5 32.4961C592.5 23.1204 600.322 15.4961 610 15.4961C619.678 15.4961 627.5 23.1204 627.5 32.4961C627.5 41.8718 619.678 49.4961 610 49.4961Z" stroke="#D3DEEA"/>
<path fill-rule="evenodd" clip-rule="evenodd" d="M678.655 44.6059C678.413 44.7347 678.321 45.0356 678.45 45.2778L680.491 49.1183C680.62 49.3606 680.921 49.4526 681.163 49.3238C681.405 49.195 681.497 48.8942 681.369 48.6519L679.327 44.8114C679.198 44.5691 678.897 44.4771 678.655 44.6059Z" fill="#F0AE00"/>
<path fill-rule="evenodd" clip-rule="evenodd" d="M674.068 53.6824C674.058 53.9567 674.273 54.1868 674.547 54.1964L678.894 54.3486C679.168 54.3582 679.398 54.1436 679.407 53.8694C679.417 53.5952 679.203 53.3651 678.928 53.3555L674.582 53.2033C674.307 53.1937 674.077 53.4082 674.068 53.6824Z" fill="#F0AE00"/>
<path fill-rule="evenodd" clip-rule="evenodd" d="M686.845 44.0994C687.112 44.1611 687.279 44.4278 687.218 44.6952L686.24 48.9332C686.178 49.2006 685.911 49.3673 685.644 49.3056C685.376 49.2439 685.21 48.9772 685.271 48.7098L686.249 44.4718C686.311 44.2044 686.578 44.0377 686.845 44.0994Z" fill="#F0AE00"/>
<path d="M696.935 59.8827C696.958 59.6652 696.844 59.4562 696.649 59.3575L684.059 52.9884C683.881 52.8984 683.667 52.9167 683.507 53.0356C683.347 53.1546 683.268 53.3538 683.303 53.5502L685.764 67.434C685.803 67.6492 685.97 67.8184 686.184 67.8593C686.248 67.8714 686.313 67.8716 686.374 67.8607C686.52 67.835 686.651 67.7488 686.731 67.6182L690.182 62.0145L696.546 60.3366C696.757 60.2808 696.912 60.1002 696.935 59.8827Z" fill="#003F5A"/>
<path d="M637 47.9961L637 15.9961L636 15.9961L636 47.9961L637 47.9961Z" fill="#D5E0EB"/>
<path d="M616.573 30.0978V26.5824C616.573 26.408 616.432 26.2666 616.257 26.2666H610.5H604.742C604.568 26.2666 604.426 26.408 604.426 26.5824V30.0978C604.426 30.2726 604.568 30.4139 604.742 30.4139H606.421C606.596 30.4139 606.737 30.2726 606.737 30.0978V28.8936C606.737 28.7188 606.879 28.5774 607.053 28.5774H609.028C609.203 28.5774 609.344 28.7188 609.344 28.8936V37.5824C609.344 37.7571 609.203 37.8985 609.028 37.8985H608.164C607.99 37.8985 607.848 38.0399 607.848 38.2147V39.8935C607.848 40.068 607.99 40.2093 608.164 40.2093H610.5H612.835C613.01 40.2093 613.151 40.068 613.151 39.8935V38.2147C613.151 38.0399 613.01 37.8985 612.835 37.8985H611.971C611.797 37.8985 611.655 37.7571 611.655 37.5824V28.8936C611.655 28.7188 611.797 28.5774 611.971 28.5774H613.946C614.12 28.5774 614.262 28.7188 614.262 28.8936V30.0978C614.262 30.2726 614.403 30.4139 614.578 30.4139H616.257C616.432 30.4139 616.573 30.2726 616.573 30.0978Z" fill="#003F5A"/>
<g opacity="0.8" clip-path="url(#clip5)">
<path d="M669.97 26.0258C668.597 24.6529 666.371 24.6529 664.998 26.0258L662.06 28.9641C660.64 30.3843 660.771 32.6472 662.06 33.936C662.276 34.1518 662.514 34.3277 662.767 34.4722L663.303 33.936C663.655 33.5842 663.531 33.1729 663.524 32.8762C663.447 32.8214 663.372 32.7623 663.303 32.693C662.642 32.0317 662.612 30.8981 663.303 30.207C663.405 30.1044 666.179 27.3311 666.241 27.2688C666.927 26.5833 668.042 26.5833 668.727 27.2688C669.413 27.9543 669.413 29.0692 668.727 29.7547L666.785 31.6969C666.841 32.0077 667.178 32.7438 667.005 33.9581C667.013 33.9497 667.023 33.9444 667.032 33.936L669.97 30.9977C671.343 29.6247 671.343 27.3988 669.97 26.0258Z" fill="white"/>
<path d="M665.168 30.8283C664.952 30.6125 664.713 30.4365 664.461 30.292L663.925 30.8283C663.573 31.18 663.697 31.5913 663.703 31.888C663.781 31.9427 663.856 32.0019 663.925 32.0712C664.586 32.7325 664.616 33.8661 663.925 34.5571C663.822 34.66 660.819 37.663 660.759 37.7231C660.074 38.4086 658.959 38.4086 658.273 37.7231C657.588 37.0376 657.588 35.9227 658.273 35.2372L660.443 33.0673C660.387 32.7565 660.05 32.0204 660.223 30.8061C660.215 30.8144 660.205 30.8198 660.196 30.8282L657.03 33.9943C655.657 35.3672 655.657 37.5932 657.03 38.9661C658.403 40.339 660.629 40.339 662.002 38.9661L665.168 35.8001C666.562 34.4063 666.486 32.1459 665.168 30.8283Z" fill="white"/>
</g>
<defs>
<filter id="filter0_b" x="420.281" y="14.0293" width="123.803" height="77.309" filterUnits="userSpaceOnUse" color-interpolation-filters="sRGB">
<feFlood flood-opacity="0" result="BackgroundImageFix"/>
<feGaussianBlur in="BackgroundImage" stdDeviation="4"/>
<feComposite in2="SourceAlpha" operator="in" result="effect1_backgroundBlur"/>
<feBlend mode="normal" in="SourceGraphic" in2="effect1_backgroundBlur" result="shape"/>
</filter>
<filter id="filter1_b" x="615.999" y="97.9961" width="81.0008" height="226.197" filterUnits="userSpaceOnUse" color-interpolation-filters="sRGB">
<feFlood flood-opacity="0" result="BackgroundImageFix"/>
<feGaussianBlur in="BackgroundImage" stdDeviation="4"/>
<feComposite in2="SourceAlpha" operator="in" result="effect1_backgroundBlur"/>
<feBlend mode="normal" in="SourceGraphic" in2="effect1_backgroundBlur" result="shape"/>
</filter>
<filter id="filter2_b" x="576" y="-1.00391" width="121" height="67" filterUnits="userSpaceOnUse" color-interpolation-filters="sRGB">
<feFlood flood-opacity="0" result="BackgroundImageFix"/>
<feGaussianBlur in="BackgroundImage" stdDeviation="4"/>
<feComposite in2="SourceAlpha" operator="in" result="effect1_backgroundBlur"/>
<feBlend mode="normal" in="SourceGraphic" in2="effect1_backgroundBlur" result="shape"/>
</filter>
<linearGradient id="paint0_linear" x1="416.588" y1="145.607" x2="400.62" y2="145.607" gradientUnits="userSpaceOnUse">
<stop stop-color="#FFA170"/>
<stop offset="0.365" stop-color="#FF9F6D"/>
<stop offset="0.5988" stop-color="#FF9A65"/>
<stop offset="0.7958" stop-color="#FF9056"/>
<stop offset="0.9714" stop-color="#FF8341"/>
<stop offset="1" stop-color="#FF803D"/>
</linearGradient>
<linearGradient id="paint1_linear" x1="399.37" y1="125.861" x2="405.031" y2="151.469" gradientUnits="userSpaceOnUse">
<stop stop-color="#FEA02F"/>
<stop offset="0.21875" stop-color="#FFB45A"/>
<stop offset="1" stop-color="#FEA02F"/>
</linearGradient>
<linearGradient id="paint2_linear" x1="95.5509" y1="237.606" x2="128.672" y2="237.606" gradientUnits="userSpaceOnUse">
<stop stop-color="#FFA170"/>
<stop offset="0.365" stop-color="#FF9F6D"/>
<stop offset="0.5988" stop-color="#FF9A65"/>
<stop offset="0.7958" stop-color="#FF9056"/>
<stop offset="0.9714" stop-color="#FF8341"/>
<stop offset="1" stop-color="#FF803D"/>
</linearGradient>
<linearGradient id="paint3_linear" x1="131.265" y1="196.646" x2="119.524" y2="249.765" gradientUnits="userSpaceOnUse">
<stop stop-color="#FEA02F"/>
<stop offset="0.21875" stop-color="#FFB45A"/>
<stop offset="1" stop-color="#FEA02F"/>
</linearGradient>
<clipPath id="clip0">
<rect width="57" height="22" fill="white" transform="matrix(-1 0 0 1 391 181.803)"/>
</clipPath>
<clipPath id="clip1">
<rect width="97" height="37" fill="white" transform="matrix(-1 0 0 1 97 328.901)"/>
</clipPath>
<clipPath id="clip2">
<rect width="21" height="21" fill="white" transform="translate(311 239.996)"/>
</clipPath>
<clipPath id="clip3">
<rect width="27" height="27" fill="white" transform="translate(521.16 15.8838)"/>
</clipPath>
<clipPath id="clip4">
<rect width="10" height="10" fill="white" transform="translate(513 245.996)"/>
</clipPath>
<clipPath id="clip5">
<rect width="15" height="15" fill="white" transform="translate(656 24.9961)"/>
</clipPath>
</defs>
</svg>
